<mxfile host="app.diagrams.net" agent="Mozilla/5.0 (Windows NT 10.0; Win64; x64) AppleWebKit/537.36 (KHTML, like Gecko) Chrome/129.0.0.0 Safari/537.36" version="24.7.17">
  <diagram name="Page-1" id="42789a77-a242-8287-6e28-9cd8cfd52e62">
    <mxGraphModel dx="1562" dy="818" grid="1" gridSize="10" guides="1" tooltips="1" connect="1" arrows="1" fold="1" page="1" pageScale="1" pageWidth="1100" pageHeight="850" background="none" math="0" shadow="0">
      <root>
        <mxCell id="0" />
        <mxCell id="1" parent="0" />
        <mxCell id="kZUTbk8uP12sm6TuGPBK-1" value="User" style="shape=umlActor;verticalLabelPosition=bottom;verticalAlign=top;html=1;outlineConnect=0;" vertex="1" parent="1">
          <mxGeometry x="360" y="10" width="30" height="60" as="geometry" />
        </mxCell>
        <mxCell id="kZUTbk8uP12sm6TuGPBK-33" style="edgeStyle=orthogonalEdgeStyle;rounded=0;orthogonalLoop=1;jettySize=auto;html=1;entryX=0.5;entryY=0;entryDx=0;entryDy=0;" edge="1" parent="1" source="kZUTbk8uP12sm6TuGPBK-2" target="kZUTbk8uP12sm6TuGPBK-5">
          <mxGeometry relative="1" as="geometry">
            <Array as="points">
              <mxPoint x="505" y="190" />
              <mxPoint x="290" y="190" />
            </Array>
          </mxGeometry>
        </mxCell>
        <mxCell id="kZUTbk8uP12sm6TuGPBK-34" style="edgeStyle=orthogonalEdgeStyle;rounded=0;orthogonalLoop=1;jettySize=auto;html=1;entryX=0.5;entryY=0;entryDx=0;entryDy=0;" edge="1" parent="1" source="kZUTbk8uP12sm6TuGPBK-2" target="kZUTbk8uP12sm6TuGPBK-7">
          <mxGeometry relative="1" as="geometry">
            <Array as="points">
              <mxPoint x="505" y="190" />
              <mxPoint x="530" y="190" />
            </Array>
          </mxGeometry>
        </mxCell>
        <mxCell id="kZUTbk8uP12sm6TuGPBK-35" style="edgeStyle=orthogonalEdgeStyle;rounded=0;orthogonalLoop=1;jettySize=auto;html=1;" edge="1" parent="1" source="kZUTbk8uP12sm6TuGPBK-2" target="kZUTbk8uP12sm6TuGPBK-8">
          <mxGeometry relative="1" as="geometry">
            <Array as="points">
              <mxPoint x="505" y="190" />
              <mxPoint x="800" y="190" />
            </Array>
          </mxGeometry>
        </mxCell>
        <mxCell id="kZUTbk8uP12sm6TuGPBK-2" value="&lt;b&gt;Login&lt;/b&gt;" style="ellipse;whiteSpace=wrap;html=1;" vertex="1" parent="1">
          <mxGeometry x="445" y="130" width="120" height="30" as="geometry" />
        </mxCell>
        <mxCell id="kZUTbk8uP12sm6TuGPBK-37" style="edgeStyle=orthogonalEdgeStyle;rounded=0;orthogonalLoop=1;jettySize=auto;html=1;entryX=0.5;entryY=1;entryDx=0;entryDy=0;" edge="1" parent="1" source="kZUTbk8uP12sm6TuGPBK-3" target="kZUTbk8uP12sm6TuGPBK-36">
          <mxGeometry relative="1" as="geometry">
            <Array as="points">
              <mxPoint x="670" y="35" />
            </Array>
          </mxGeometry>
        </mxCell>
        <mxCell id="kZUTbk8uP12sm6TuGPBK-3" value="&lt;b&gt;Register&lt;/b&gt;" style="ellipse;whiteSpace=wrap;html=1;" vertex="1" parent="1">
          <mxGeometry x="445" y="20" width="120" height="30" as="geometry" />
        </mxCell>
        <mxCell id="kZUTbk8uP12sm6TuGPBK-32" style="edgeStyle=orthogonalEdgeStyle;rounded=0;orthogonalLoop=1;jettySize=auto;html=1;entryX=0.5;entryY=0;entryDx=0;entryDy=0;" edge="1" parent="1" source="kZUTbk8uP12sm6TuGPBK-5" target="kZUTbk8uP12sm6TuGPBK-10">
          <mxGeometry relative="1" as="geometry" />
        </mxCell>
        <mxCell id="kZUTbk8uP12sm6TuGPBK-5" value="Profil&lt;span style=&quot;color: rgba(0, 0, 0, 0); font-family: monospace; font-size: 0px; text-align: start; text-wrap: nowrap;&quot;&gt;%3CmxGraphModel%3E%3Croot%3E%3CmxCell%20id%3D%220%22%2F%3E%3CmxCell%20id%3D%221%22%20parent%3D%220%22%2F%3E%3CmxCell%20id%3D%222%22%20value%3D%22%26lt%3Bb%26gt%3BLogin%26lt%3B%2Fb%26gt%3B%22%20style%3D%22ellipse%3BwhiteSpace%3Dwrap%3Bhtml%3D1%3B%22%20vertex%3D%221%22%20parent%3D%221%22%3E%3CmxGeometry%20x%3D%22320%22%20y%3D%22120%22%20width%3D%22120%22%20height%3D%2230%22%20as%3D%22geometry%22%2F%3E%3C%2FmxCell%3E%3C%2Froot%3E%3C%2FmxGraphModel%3E&lt;/span&gt;" style="ellipse;whiteSpace=wrap;html=1;" vertex="1" parent="1">
          <mxGeometry x="210" y="230" width="160" height="60" as="geometry" />
        </mxCell>
        <mxCell id="kZUTbk8uP12sm6TuGPBK-27" style="edgeStyle=orthogonalEdgeStyle;rounded=0;orthogonalLoop=1;jettySize=auto;html=1;entryX=0.5;entryY=0;entryDx=0;entryDy=0;" edge="1" parent="1" source="kZUTbk8uP12sm6TuGPBK-7" target="kZUTbk8uP12sm6TuGPBK-12">
          <mxGeometry relative="1" as="geometry">
            <Array as="points">
              <mxPoint x="530" y="330" />
              <mxPoint x="340" y="330" />
            </Array>
          </mxGeometry>
        </mxCell>
        <mxCell id="kZUTbk8uP12sm6TuGPBK-28" style="edgeStyle=orthogonalEdgeStyle;rounded=0;orthogonalLoop=1;jettySize=auto;html=1;entryX=0.5;entryY=0;entryDx=0;entryDy=0;" edge="1" parent="1" source="kZUTbk8uP12sm6TuGPBK-7" target="kZUTbk8uP12sm6TuGPBK-11">
          <mxGeometry relative="1" as="geometry" />
        </mxCell>
        <mxCell id="kZUTbk8uP12sm6TuGPBK-29" style="edgeStyle=orthogonalEdgeStyle;rounded=0;orthogonalLoop=1;jettySize=auto;html=1;entryX=0.5;entryY=0;entryDx=0;entryDy=0;" edge="1" parent="1" source="kZUTbk8uP12sm6TuGPBK-7" target="kZUTbk8uP12sm6TuGPBK-13">
          <mxGeometry relative="1" as="geometry" />
        </mxCell>
        <mxCell id="kZUTbk8uP12sm6TuGPBK-30" style="edgeStyle=orthogonalEdgeStyle;rounded=0;orthogonalLoop=1;jettySize=auto;html=1;entryX=0.5;entryY=0;entryDx=0;entryDy=0;" edge="1" parent="1" source="kZUTbk8uP12sm6TuGPBK-7" target="kZUTbk8uP12sm6TuGPBK-14">
          <mxGeometry relative="1" as="geometry">
            <Array as="points">
              <mxPoint x="530" y="330" />
              <mxPoint x="788" y="330" />
            </Array>
          </mxGeometry>
        </mxCell>
        <mxCell id="kZUTbk8uP12sm6TuGPBK-31" style="edgeStyle=orthogonalEdgeStyle;rounded=0;orthogonalLoop=1;jettySize=auto;html=1;entryX=0.566;entryY=0.107;entryDx=0;entryDy=0;entryPerimeter=0;" edge="1" parent="1" source="kZUTbk8uP12sm6TuGPBK-7" target="kZUTbk8uP12sm6TuGPBK-15">
          <mxGeometry relative="1" as="geometry">
            <mxPoint x="920" y="360" as="targetPoint" />
            <Array as="points">
              <mxPoint x="530" y="330" />
              <mxPoint x="956" y="330" />
            </Array>
          </mxGeometry>
        </mxCell>
        <mxCell id="kZUTbk8uP12sm6TuGPBK-7" value="Parties" style="ellipse;whiteSpace=wrap;html=1;" vertex="1" parent="1">
          <mxGeometry x="450" y="230" width="160" height="60" as="geometry" />
        </mxCell>
        <mxCell id="kZUTbk8uP12sm6TuGPBK-8" value="Friends" style="ellipse;whiteSpace=wrap;html=1;" vertex="1" parent="1">
          <mxGeometry x="720" y="230" width="160" height="60" as="geometry" />
        </mxCell>
        <mxCell id="kZUTbk8uP12sm6TuGPBK-10" value="Kijelentkezés" style="ellipse;whiteSpace=wrap;html=1;" vertex="1" parent="1">
          <mxGeometry x="220" y="320" width="120" height="30" as="geometry" />
        </mxCell>
        <mxCell id="kZUTbk8uP12sm6TuGPBK-21" value="" style="edgeStyle=orthogonalEdgeStyle;rounded=0;orthogonalLoop=1;jettySize=auto;html=1;" edge="1" parent="1" source="kZUTbk8uP12sm6TuGPBK-11" target="kZUTbk8uP12sm6TuGPBK-20">
          <mxGeometry relative="1" as="geometry" />
        </mxCell>
        <mxCell id="kZUTbk8uP12sm6TuGPBK-11" value="Csatlakozás partihoz" style="ellipse;whiteSpace=wrap;html=1;" vertex="1" parent="1">
          <mxGeometry x="430" y="370" width="120" height="30" as="geometry" />
        </mxCell>
        <mxCell id="kZUTbk8uP12sm6TuGPBK-26" style="edgeStyle=orthogonalEdgeStyle;rounded=0;orthogonalLoop=1;jettySize=auto;html=1;" edge="1" parent="1" source="kZUTbk8uP12sm6TuGPBK-12" target="kZUTbk8uP12sm6TuGPBK-25">
          <mxGeometry relative="1" as="geometry" />
        </mxCell>
        <mxCell id="kZUTbk8uP12sm6TuGPBK-12" value="Parti létrehozása" style="ellipse;whiteSpace=wrap;html=1;" vertex="1" parent="1">
          <mxGeometry x="280" y="370" width="120" height="30" as="geometry" />
        </mxCell>
        <mxCell id="kZUTbk8uP12sm6TuGPBK-22" style="edgeStyle=orthogonalEdgeStyle;rounded=0;orthogonalLoop=1;jettySize=auto;html=1;entryX=0.5;entryY=0;entryDx=0;entryDy=0;" edge="1" parent="1" source="kZUTbk8uP12sm6TuGPBK-13" target="kZUTbk8uP12sm6TuGPBK-20">
          <mxGeometry relative="1" as="geometry" />
        </mxCell>
        <mxCell id="kZUTbk8uP12sm6TuGPBK-13" value="Parti résztvevések lista" style="ellipse;whiteSpace=wrap;html=1;" vertex="1" parent="1">
          <mxGeometry x="565" y="370" width="135" height="30" as="geometry" />
        </mxCell>
        <mxCell id="kZUTbk8uP12sm6TuGPBK-23" style="edgeStyle=orthogonalEdgeStyle;rounded=0;orthogonalLoop=1;jettySize=auto;html=1;entryX=0.5;entryY=0;entryDx=0;entryDy=0;" edge="1" parent="1" source="kZUTbk8uP12sm6TuGPBK-14" target="kZUTbk8uP12sm6TuGPBK-20">
          <mxGeometry relative="1" as="geometry">
            <Array as="points">
              <mxPoint x="788" y="420" />
              <mxPoint x="600" y="420" />
            </Array>
          </mxGeometry>
        </mxCell>
        <mxCell id="kZUTbk8uP12sm6TuGPBK-14" value="Parti szervezések lista" style="ellipse;whiteSpace=wrap;html=1;" vertex="1" parent="1">
          <mxGeometry x="720" y="370" width="135" height="30" as="geometry" />
        </mxCell>
        <mxCell id="kZUTbk8uP12sm6TuGPBK-18" style="edgeStyle=orthogonalEdgeStyle;rounded=0;orthogonalLoop=1;jettySize=auto;html=1;entryX=0.5;entryY=0;entryDx=0;entryDy=0;" edge="1" parent="1" source="kZUTbk8uP12sm6TuGPBK-15" target="kZUTbk8uP12sm6TuGPBK-16">
          <mxGeometry relative="1" as="geometry" />
        </mxCell>
        <mxCell id="kZUTbk8uP12sm6TuGPBK-19" style="edgeStyle=orthogonalEdgeStyle;rounded=0;orthogonalLoop=1;jettySize=auto;html=1;entryX=0.5;entryY=0;entryDx=0;entryDy=0;" edge="1" parent="1" source="kZUTbk8uP12sm6TuGPBK-15" target="kZUTbk8uP12sm6TuGPBK-17">
          <mxGeometry relative="1" as="geometry" />
        </mxCell>
        <mxCell id="kZUTbk8uP12sm6TuGPBK-15" value="Parti meghívások lista" style="ellipse;whiteSpace=wrap;html=1;" vertex="1" parent="1">
          <mxGeometry x="880" y="370" width="135" height="30" as="geometry" />
        </mxCell>
        <mxCell id="kZUTbk8uP12sm6TuGPBK-16" value="Elfogadás" style="ellipse;whiteSpace=wrap;html=1;" vertex="1" parent="1">
          <mxGeometry x="790" y="440" width="135" height="30" as="geometry" />
        </mxCell>
        <mxCell id="kZUTbk8uP12sm6TuGPBK-17" value="Elutasítás" style="ellipse;whiteSpace=wrap;html=1;" vertex="1" parent="1">
          <mxGeometry x="940" y="440" width="135" height="30" as="geometry" />
        </mxCell>
        <mxCell id="kZUTbk8uP12sm6TuGPBK-20" value="Parti oldal megtekintése" style="ellipse;whiteSpace=wrap;html=1;" vertex="1" parent="1">
          <mxGeometry x="520" y="440" width="160" height="60" as="geometry" />
        </mxCell>
        <mxCell id="kZUTbk8uP12sm6TuGPBK-25" value="Parti létrehozó oldal" style="ellipse;whiteSpace=wrap;html=1;" vertex="1" parent="1">
          <mxGeometry x="270" y="440" width="160" height="60" as="geometry" />
        </mxCell>
        <mxCell id="kZUTbk8uP12sm6TuGPBK-36" value="&lt;b&gt;Megerősítés&lt;/b&gt;" style="ellipse;whiteSpace=wrap;html=1;" vertex="1" parent="1">
          <mxGeometry x="610" y="60" width="120" height="30" as="geometry" />
        </mxCell>
        <mxCell id="kZUTbk8uP12sm6TuGPBK-39" style="edgeStyle=orthogonalEdgeStyle;rounded=0;orthogonalLoop=1;jettySize=auto;html=1;entryX=0.582;entryY=0.133;entryDx=0;entryDy=0;entryPerimeter=0;" edge="1" parent="1" source="kZUTbk8uP12sm6TuGPBK-36" target="kZUTbk8uP12sm6TuGPBK-2">
          <mxGeometry relative="1" as="geometry" />
        </mxCell>
        <mxCell id="kZUTbk8uP12sm6TuGPBK-40" value="" style="endArrow=none;html=1;rounded=0;" edge="1" parent="1">
          <mxGeometry width="50" height="50" relative="1" as="geometry">
            <mxPoint x="470" y="130" as="sourcePoint" />
            <mxPoint x="400" y="80" as="targetPoint" />
          </mxGeometry>
        </mxCell>
        <mxCell id="kZUTbk8uP12sm6TuGPBK-41" value="" style="endArrow=none;html=1;rounded=0;" edge="1" parent="1">
          <mxGeometry width="50" height="50" relative="1" as="geometry">
            <mxPoint x="440" y="40" as="sourcePoint" />
            <mxPoint x="400" y="40" as="targetPoint" />
          </mxGeometry>
        </mxCell>
      </root>
    </mxGraphModel>
  </diagram>
</mxfile>
